
<svg xmlns="http://www.w3.org/2000/svg" width="24" height="24" viewBox="0 0 24 24" fill="none" stroke="currentColor" stroke-width="2" stroke-linecap="round" stroke-linejoin="round" class="lucide lucide-wolf"><path d="M6 13v-2"/><path d="M18 13v-2"/><path d="M5.17 15.276a5 5 0 0 0 13.66 0"/><path d="M13.5 8s1-1.5 2-1.5c1 0 2.5 1 2.5 2s-1 2.5-2 2.5c-.83 0-1.5-.67-1.5-1.5z"/><path d="M10.5 8s-1-1.5-2-1.5c-1 0-2.5 1-2.5 2s1 2.5 2 2.5c.83 0 1.5-.67 1.5-1.5z"/><path d="M15.54 13.5c.28.59.46 1.26.46 2a4 4 0 0 1-8 0c0-.74.18-1.41.46-2"/></svg>
